<svg xmlns:xlink="http://www.w3.org/1999/xlink" xmlns="http://www.w3.org/2000/svg" class="css-ze2te4 css-qd6ojx" viewBox="0 0 56.00000000000001 52.13793213887741" width="1100"  height="1024.137952727949" ><defs><linearGradient id="SvgjsLinearGradient2671"><stop id="SvgjsStop2672" stop-color="#fbb040" offset="0"></stop><stop id="SvgjsStop2673" stop-color="#f9ed32" offset="1"></stop></linearGradient><linearGradient id="SvgjsLinearGradient2671"><stop id="SvgjsStop2672" stop-color="#fbb040" offset="0"></stop><stop id="SvgjsStop2673" stop-color="#f9ed32" offset="1"></stop></linearGradient><linearGradient id="SvgjsLinearGradient2671"><stop id="SvgjsStop2672" stop-color="#fbb040" offset="0"></stop><stop id="SvgjsStop2673" stop-color="#f9ed32" offset="1"></stop></linearGradient><linearGradient id="SvgjsLinearGradient2671"><stop id="SvgjsStop2672" stop-color="#fbb040" offset="0"></stop><stop id="SvgjsStop2673" stop-color="#f9ed32" offset="1"></stop></linearGradient><linearGradient id="SvgjsLinearGradient2671"><stop id="SvgjsStop2672" stop-color="#fbb040" offset="0"></stop><stop id="SvgjsStop2673" stop-color="#f9ed32" offset="1"></stop></linearGradient><linearGradient id="SvgjsLinearGradient2671"><stop id="SvgjsStop2672" stop-color="#fbb040" offset="0"></stop><stop id="SvgjsStop2673" stop-color="#f9ed32" offset="1"></stop></linearGradient><linearGradient id="SvgjsLinearGradient2671"><stop id="SvgjsStop2672" stop-color="#fbb040" offset="0"></stop><stop id="SvgjsStop2673" stop-color="#f9ed32" offset="1"></stop></linearGradient><linearGradient id="SvgjsLinearGradient2671"><stop id="SvgjsStop2672" stop-color="#fbb040" offset="0"></stop><stop id="SvgjsStop2673" stop-color="#f9ed32" offset="1"></stop></linearGradient><linearGradient id="SvgjsLinearGradient2671"><stop id="SvgjsStop2672" stop-color="#fbb040" offset="0"></stop><stop id="SvgjsStop2673" stop-color="#f9ed32" offset="1"></stop></linearGradient></defs><g transform="translate(-14.104947531038599, -15.868069575505961) scale(0.8395802483087794)" class="css-35f99s" fill="url(&quot;#SvgjsLinearGradient2671&quot;)"><path xmlns="http://www.w3.org/2000/svg" d="M83.5,61.4l-7.2-7.2c-1.8-4.5-5.2-8.2-9.5-10.4l3.8-3.8c4.8-4.8,4.8-12.7,0-17.5c-2.3-2.3-5.4-3.6-8.7-3.6  c-3.3,0-6.4,1.3-8.7,3.6l-4.9,4.9l-4.9-4.9c-2.3-2.3-5.4-3.6-8.7-3.6s-6.4,1.3-8.7,3.6c-4.8,4.8-4.8,12.7,0,17.5l3.1,3.1  c-7.2,2.9-12.3,10-12.3,18.2c0,10.9,8.8,19.7,19.7,19.7H58c8.3,0,15.4-5.2,18.3-12.5L83.5,61.4z M53.2,48.4v26h-6.7v-26H53.2z   M57.8,27.3c1.1-1.1,2.5-1.7,4-1.7c1.5,0,3,0.6,4,1.7c2.2,2.2,2.2,5.9,0,8.1l-6.5,6.5c-0.5,0-0.9-0.1-1.4-0.1H43.3L57.8,27.3z   M30.4,27.3c1.1-1.1,2.5-1.7,4-1.7c1.5,0,3,0.6,4,1.7l4.9,4.9l-8.1,8.1l-4.9-4.9C28.1,33.1,28.1,29.5,30.4,27.3z M23.2,61.4  c0-7.2,5.8-13,13-13H38v26h-1.8C29,74.4,23.2,68.6,23.2,61.4z M61.8,73.8V49c5.3,1.6,9.2,6.6,9.2,12.4S67.1,72.2,61.8,73.8z" fill="url(&quot;#SvgjsLinearGradient2671&quot;)"></path><path xmlns="http://www.w3.org/2000/svg" d="M30.4,55.9c-2.1,0-3.8,1.7-3.8,3.8c0,0.9,0.7,1.7,1.7,1.7s1.7-0.7,1.7-1.7c0-0.3,0.2-0.5,0.5-0.5c0.3,0,0.5,0.2,0.5,0.5  c0,0.9,0.7,1.7,1.7,1.7c0.9,0,1.7-0.7,1.7-1.7C34.2,57.6,32.5,55.9,30.4,55.9z" fill="url(&quot;#SvgjsLinearGradient2671&quot;)"></path></g></svg>